<?xml version="1.0" encoding="UTF-8" standalone="no"?>
<!-- Created with Inkscape (http://www.inkscape.org/) -->

<svg
   xmlns:dc="http://purl.org/dc/elements/1.1/"
   xmlns:cc="http://creativecommons.org/ns#"
   xmlns:rdf="http://www.w3.org/1999/02/22-rdf-syntax-ns#"
   xmlns:svg="http://www.w3.org/2000/svg"
   xmlns="http://www.w3.org/2000/svg"
   xmlns:sodipodi="http://sodipodi.sourceforge.net/DTD/sodipodi-0.dtd"
   xmlns:inkscape="http://www.inkscape.org/namespaces/inkscape"
   version="1.1"
   id="svg2"
   xml:space="preserve"
   width="230"
   height="230"
   viewBox="0 0 230 230"
   sodipodi:docname="SVG Sandy Cheeks.svg"
   inkscape:version="0.92.2 5c3e80d, 2017-08-06"><metadata
     id="metadata8"><rdf:RDF><cc:Work
         rdf:about=""><dc:format>image/svg+xml</dc:format><dc:type
           rdf:resource="http://purl.org/dc/dcmitype/StillImage" /><dc:title></dc:title></cc:Work></rdf:RDF></metadata><defs
     id="defs6" /><sodipodi:namedview
     pagecolor="#ffffff"
     bordercolor="#666666"
     borderopacity="1"
     objecttolerance="10"
     gridtolerance="10"
     guidetolerance="10"
     inkscape:pageopacity="0"
     inkscape:pageshadow="2"
     inkscape:window-width="1431"
     inkscape:window-height="768"
     id="namedview4"
     showgrid="false"
     inkscape:zoom="0.8"
     inkscape:cx="196.00103"
     inkscape:cy="85.483836"
     inkscape:window-x="0"
     inkscape:window-y="0"
     inkscape:window-maximized="0"
     inkscape:current-layer="g10"
     fit-margin-top="0"
     fit-margin-left="0"
     fit-margin-right="0"
     fit-margin-bottom="0" /><g
     id="g10"
     inkscape:groupmode="layer"
     inkscape:label="SB_MAINCHAR7_SANDY"
     transform="matrix(1.3333333,0,0,-1.3333333,-220.30396,418.91837)"><g
       id="MAIN_CHARACTER_7"
       inkscape:label="SB_MAINCHAR7_SANDY"
       transform="matrix(0.378,0,0,0.378,166.24553,142.8888)"
       sodipodi:insensitive="true"><title
         id="title1651">Sandy</title><g
         id="g1484"><g
           id="g12"
           transform="matrix(1.930883,0,0,1.930883,275.21975,419.28849)"><path
             d="m 0,0 c -0.398,-0.937 -1.31,-1.553 -2.221,-1.937 0.931,-0.164 1.919,-0.822 2.304,-1.728 0.384,-0.878 0.219,-1.865 -0.275,-2.688 -1.481,-2.606 -3.402,-4.444 -5.046,-6.857 -1.072,-1.537 -2.798,-2.469 -4.417,-2.88 -1.014,-0.275 -2.002,0.137 -2.827,0.657 0.029,-1.699 -0.985,-2.934 -2.384,-3.894 -2.428,-1.658 -4.992,-3.378 -7.907,-4.016 -1.949,-0.428 -6.156,-0.942 -6.958,1.665 -0.403,1.315 -0.126,2.143 -0.086,2.817 -1.479,-0.709 -2.754,-1.492 -4.417,-1.756 -0.933,-0.148 -2.769,-0.532 -3.594,0.958 -1.919,-2.989 -3.427,-6.115 -4.689,-9.351 -6.308,-16.349 -2.632,-36.372 9.354,-48.963 1.673,0.494 3.455,0.719 5.322,0.905 4.365,0.435 8.641,0.33 12.975,0.412 -1.961,2.209 -4.279,5.651 -6.336,8.421 -2.195,2.88 -4.033,5.76 -4.994,9.134 -1.07,3.923 0.138,7.818 2.853,10.478 2.331,2.331 5.925,2.909 9.078,2.305 0.443,-0.091 0.803,-0.027 1.111,0.138 0.897,0.483 4.579,6.769 4.95,9.071 0.083,0.519 0.108,1.052 0.056,1.598 -0.273,3.237 -1.123,7.296 1.702,9.326 1.487,1.068 3.968,0.196 5.132,-0.979 1.237,-1.246 1.814,-2.208 1.59,-4.013 -0.22,-1.755 -1.482,-3.073 -1.895,-4.608 2.222,0.136 4.28,-0.028 6.309,-0.467 5.404,-1.152 10.122,-3.373 14.621,-6.83 0.494,-0.411 1.014,-0.738 1.453,-1.207 0.44,0.988 1.482,1.893 2.415,2.524 1.865,1.234 4.581,2.742 6.72,1.179 1.591,-1.15 1.817,-2.706 0.989,-4.444 -0.719,-1.508 -2.473,-2.499 -3.952,-3.126 -1.619,-0.686 -3.345,-1.016 -5.074,-1.399 -0.356,-3.703 -1.344,-7.269 -1.7,-11.055 1.015,-0.713 1.754,-1.618 2.578,-2.551 2.25,-2.715 4.279,-6.583 2.413,-10.011 -1.974,-3.731 -6.116,-5.432 -9.545,-7.379 -0.767,-0.439 -1.776,-0.723 -2.533,-1.1 0.977,-0.377 3.155,-1.053 6.043,-2.192 2.525,-1.015 5.348,-1.879 7.597,-3.443 3.95,1.618 7.409,3.773 10.617,6.872 1.838,1.755 3.895,3.594 5.348,5.788 1.538,2.331 2.553,4.909 3.676,7.434 4.912,10.944 5.294,25.674 0.66,36.947 C 40.102,-13.402 22.933,-1.032 5.213,0.093 3.647,0.202 0.056,0.134 0,0 Z m 27.799,-114.181 c -0.197,0.119 -2.48,1.003 -2.507,0.85 -0.606,-3.236 -1.072,-6.555 -1.84,-9.737 0.033,0.132 0.555,0.398 0.662,0.475 0.401,0.285 0.802,0.566 1.197,0.853 0.887,0.639 1.53,1.256 2.192,2.149 0.461,0.621 0.906,1.205 1.254,1.853 0.32,0.595 0.437,1.2 0.348,1.76 -0.111,0.703 -0.544,1.336 -1.306,1.797 z M -2.496,4.975 C -0.498,4.218 0.337,2.402 0.219,1.355 20.71,2.671 40.405,-10.44 48.141,-29.256 c 1.507,-3.649 2.44,-7.544 3.099,-11.467 0.246,-1.481 0.383,-2.825 0.466,-4.416 0.357,-8.366 -1.206,-16.87 -4.828,-24.605 -2.633,-5.705 -6.556,-10.753 -11.768,-14.619 -1.947,-1.455 -3.976,-2.772 -6.062,-3.896 -0.219,-1.646 -0.356,-3.237 -0.657,-4.663 0.712,-0.22 1.477,-0.257 2.167,-0.521 5.625,-2.165 9.174,-5.407 12.794,-9.741 4.333,-5.184 5.584,-13.3 3.664,-19.884 -1.29,-4.444 -3.183,-8.749 -6.831,-12.178 -1.417,-1.317 -3.002,-2.278 -4.746,-3.429 -0.026,-0.466 0.248,-0.932 0.329,-1.509 0.33,-2.194 0.495,-4.444 -0.329,-6.446 -0.355,-0.877 -0.603,-1.756 -1.125,-2.633 -2.468,-4.224 -7.02,-6.281 -11.574,-5.486 -2.415,0.439 -4.774,1.179 -6.584,3.099 0,0 -0.132,-1.203 -0.277,-1.927 -0.314,-1.53 -0.728,-2.687 -2.397,-4.221 l -2.263,-1.669 c 0.357,-2.853 0.698,-4.842 1.062,-7.876 0,0 1.818,-0.572 2.422,-1.424 1.481,-2.137 1.588,-4.48 1.892,-7.296 0.201,-1.852 0.412,-3.757 0.605,-5.541 2.988,0.028 6.527,-0.165 9.27,-1.453 1.151,-0.521 2.276,-1.262 3.237,-2.222 1.041,-1.015 1.837,-2.277 2.358,-3.484 1.537,-3.483 2.525,-7.626 1.921,-11.602 -0.051,-0.325 -0.031,-0.58 0.039,-0.79 1.135,-0.411 1.553,-0.966 1.797,-2.174 0.248,-1.125 0.36,-2.249 -0.327,-3.099 -0.631,-0.74 -2.343,-1.256 -3.331,-1.31 -11.63,-0.85 -22.59,-0.664 -34.194,-0.719 -1.866,-0.027 -3.593,-0.111 -5.512,0.193 -0.961,0.163 -1.619,1.234 -1.729,2.165 -0.138,1.592 0.604,3.348 2.248,4.034 -0.986,8.201 -1.342,17.609 -0.85,25.674 0.139,2.304 0.769,4.525 2.168,6.391 -0.439,1.782 -0.599,3.766 -0.741,5.595 -3.182,-0.52 -7.242,-0.384 -10.643,-0.082 -2.029,0.191 -4.115,0.493 -6.008,1.178 -0.133,-2.202 -0.713,-6.049 -0.713,-6.049 4.131,-1.509 2.798,-11.34 2.771,-17.046 -0.056,-5.322 -0.083,-10.615 -0.986,-15.661 1.617,-0.686 2.468,-2.469 2.22,-4.034 -0.109,-0.74 -0.355,-1.646 -1.178,-1.975 -1.456,-0.521 -3.1,-0.19 -4.664,-0.247 -8.722,-0.328 -17.281,0.33 -25.894,0.33 -3.42,-0.024 -7.004,-0.181 -10.379,0.472 -2.093,0.406 -4.375,2.216 -2.898,4.603 0.359,0.575 0.907,1.123 1.563,1.426 0.023,1.697 0,3.593 0.276,5.677 0.422,3.345 1.458,6.647 3.332,9.491 1.636,2.484 4.651,3.521 7.393,4.197 2.002,0.495 4.169,0.439 6.063,0.604 -0.01,0.988 0.072,1.969 0.199,2.947 0.254,1.957 1.164,7.557 1.484,8.425 0.494,1.336 1.392,2.591 3.09,2.828 0.328,4.581 1.288,13.504 1.288,13.504 -2.612,2.905 -3.842,6.172 -3.842,9.93 -3.656,0.943 -5.678,4.135 -7.056,7.354 -0.155,0.362 -0.488,1.666 -0.776,1.856 0,0 -1.509,-0.281 -2.572,-0.39 -1.009,-0.103 -1.967,0.177 -2.905,0.57 -1.816,0.759 -3.318,2.115 -4.656,3.53 -1.455,1.535 -2.605,3.455 -3.347,5.403 -0.215,0.565 -1.048,4.643 -0.74,6.638 -1.701,-0.685 -4.761,-1.446 -5.185,-2.03 -2.483,-3.441 -6.088,-4.388 -8.749,-7.241 -0.877,-0.933 -1.729,-1.948 -2.524,-2.77 -2.58,-2.717 -5.816,-5.076 -9.929,-4.279 -1.756,0.328 -3.292,0.987 -4.746,1.892 -1.617,1.042 -3.017,2.442 -4.142,4.033 -2.77,3.895 -3.401,9.518 -0.933,13.824 0.989,1.7 2.031,3.291 3.292,4.745 1.07,1.207 2.77,2.415 3.429,3.95 0.604,1.317 0.191,3.237 -1.125,4.279 -2.278,1.784 -4.307,4.252 -3.951,7.16 0.084,0.685 0.14,1.316 0.413,2.029 1.206,3.182 4.636,5.267 7.818,5.267 1.754,0 3.181,-1.563 4.031,-3.072 0.633,-1.124 0.493,-2.442 0.331,-3.703 -0.193,-1.481 0.74,-3.128 2.167,-3.731 1.89,-0.823 4.194,-0.686 6.115,0.11 5.844,2.469 11.987,3.95 18.105,5.596 1.7,3.566 5.54,5.54 9.024,6.665 1.206,0.384 2.577,0.412 3.813,0.713 -0.275,0.384 -0.632,0.768 -0.521,1.262 0.355,1.454 2.058,1.838 3.292,2.222 3.346,1.015 6.883,-0.082 9.736,-1.564 0.55,1.235 0.893,4.084 1.139,5.455 -10.99,12.508 -15.046,30.259 -9.834,46.745 1.509,4.718 5.729,12.559 6.474,13.304 -0.382,0.694 -0.352,2.927 -0.393,3.79 -0.126,2.678 -0.033,5.337 2.478,6.853 1.507,0.904 3.099,1.563 4.691,2.249 -1.044,1.015 -2.223,2.029 -1.648,3.62 0.631,1.701 2.306,2.962 3.759,4.005 3.127,2.303 6.994,5.513 11.11,3.182 0.821,-0.494 1.644,-1.152 2.303,-1.865 0.081,0.576 0.439,1.096 0.741,1.645 0.905,1.892 3.319,2.057 5.047,1.645 2.689,-0.575 5.394,-1.134 7.9,-2.084"
             style="fill:#231f20;fill-opacity:1;fill-rule:nonzero;stroke:none"
             id="path14"
             inkscape:connector-curvature="0" /></g><g
           id="g16"
           transform="matrix(1.930883,0,0,1.930883,249.50231,415.62175)"><path
             d="m 0,0 c 0.816,-0.922 0.942,-2.271 0.045,-3.796 -0.935,-1.591 -2.416,-2.852 -3.952,-3.812 -2.216,-1.386 -5.408,-2.456 -7.995,-1.605 -2.502,0.824 -2.261,3.323 -1.025,5.234 0.833,1.287 2.068,2.296 3.366,3.094 2.006,1.233 4.415,2.367 6.826,2.118 C -1.547,1.11 -0.592,0.667 0,0"
             style="fill:#f9a720;fill-opacity:1;fill-rule:nonzero;stroke:none"
             id="path18"
             inkscape:connector-curvature="0" /></g><g
           id="g20"
           transform="matrix(1.930883,0,0,1.930883,267.38036,413.00733)"><path
             d="M 0,0 C 0.741,-0.165 2.195,0.082 2.552,-0.878 3.1,-2.222 1.784,-3.429 0.989,-4.416 c -1.977,-2.469 -3.621,-6.008 -6.775,-6.858 -2.141,-0.576 -3.54,1.646 -4.938,3.154 -0.411,0.466 -0.906,1.016 -1.071,1.646 1.948,1.536 4.033,3.429 4.279,5.925 C -4.992,-0.412 -2.549,0.466 0,0"
             style="fill:#ef81c6;fill-opacity:1;fill-rule:nonzero;stroke:none"
             id="path22"
             inkscape:connector-curvature="0" /></g><g
           id="g24"
           transform="matrix(1.930883,0,0,1.930883,220.82484,406.65086)"><path
             d="m 0,0 c 0.274,0.11 0.494,-0.247 0.604,-0.137 -0.631,-1.317 -0.631,-2.907 0.192,-4.088 0.302,-0.438 0.74,-0.767 1.179,-0.932 -0.702,-1.249 -1.618,-2.633 -2.496,-3.868 -0.713,-1.015 -1.81,-1.673 -2.963,-2.248 -1.31,-0.656 -3.945,-2.046 -5.179,-0.598 -1.015,1.189 -0.814,3.534 -0.823,4.975 -0.012,1.844 0.432,3.702 2.134,4.702 1.564,0.932 3.211,1.618 4.856,2.304 C -1.81,0.411 -0.658,0.247 0,0"
             style="fill:#ef81c6;fill-opacity:1;fill-rule:nonzero;stroke:none"
             id="path26"
             inkscape:connector-curvature="0" /></g><g
           id="g28"
           transform="matrix(1.930883,0,0,1.930883,247.78383,389.59537)"><path
             d="m 0,0 c 0.164,-2.66 -3.161,-3.927 -5.081,-4.887 -2.03,-1.016 -5.422,-2.581 -7.767,-1.738 -1.968,0.709 -1.208,3.48 -0.816,5.002 0.144,0.561 2.336,4.97 2.336,4.97 2.879,-0.576 6.117,0 8.502,1.591 C -2.223,3.155 -0.109,1.894 0,0"
             style="fill:#ef81c6;fill-opacity:1;fill-rule:nonzero;stroke:none"
             id="path30"
             inkscape:connector-curvature="0" /></g><g
           id="g32"
           transform="matrix(1.930883,0,0,1.930883,353.81054,366.4325)"><path
             d="m 0,0 c 1.234,-1.865 2.085,-3.95 2.906,-6.008 0.413,-1.042 0.825,-2.222 1.125,-3.291 0.825,-2.962 1.427,-5.925 1.894,-8.888 0.434,-2.759 -0.674,-7.839 -4.525,-7.214 -2.202,0.358 -3.29,2.723 -3.755,4.668 -0.465,1.944 -1.067,4.422 -1.483,6.404 -0.552,2.63 -0.988,4.996 -2.03,7.275 -0.542,1.186 -1.503,2.222 -2.283,3.543 -1.386,2.345 -1.284,4.864 0.388,6.949 0.796,0.96 2.013,1.239 3.196,0.888 C -1.951,3.547 -1.224,1.833 0,0"
             style="fill:#ffffff;fill-opacity:1;fill-rule:nonzero;stroke:none"
             id="path34"
             inkscape:connector-curvature="0" /></g><g
           id="g36"
           transform="matrix(1.930883,0,0,1.930883,352.28322,365.55009)"><path
             d="m 0,0 c 1.792,-2.81 3.111,-5.86 4.034,-9.06 0.909,-3.142 2.054,-7.34 1.698,-10.622 -0.228,-2.106 -1.762,-5.245 -4.327,-3.539 -1.469,0.976 -2.204,3.533 -2.392,5.2 -0.275,2.414 -1.017,4.662 -1.648,6.966 -0.464,1.7 -0.962,3.827 -1.907,5.299 -1.312,2.047 -2.75,3.404 -2.587,6.009 0.1,1.6 0.745,3.491 2.596,3.655 C -2.267,4.109 -1.018,1.594 0,0"
             style="fill:#ffffff;fill-opacity:1;fill-rule:nonzero;stroke:none"
             id="path38"
             inkscape:connector-curvature="0" /></g><g
           id="g40"
           transform="matrix(1.930883,0,0,1.930883,262.02795,314.92041)"><path
             d="m 0,0 c 2.057,-1.975 4.543,-4.14 7.189,-4.967 -0.272,-1.658 0.685,-3.221 1.618,-4.487 0.858,-1.166 1.913,-2.779 3.397,-3.213 1.874,-0.548 5.042,0.846 6.514,1.987 0.333,0.258 0.593,0.452 0.856,0.793 0.348,0.456 0.724,1.111 0.763,1.139 0.223,0.154 4.864,1 5.556,0.902 0.296,-0.042 0.557,-0.15 0.741,-0.364 2.597,-3.054 5.133,-5.232 4.912,-9.21 -0.054,-0.466 -0.329,-0.932 -0.603,-1.317 -0.849,-1.124 -1.784,-2.359 -3.016,-3.154 -3.54,-2.277 -7.189,-4.224 -11.138,-5.596 -4.827,-1.673 -11.082,-3.237 -16.128,-1.042 -1.371,0.576 -2.415,1.069 -3.621,1.975 -1.564,1.097 -2.55,2.551 -3.675,4.06 -4.034,5.458 -8.862,10.807 -11.193,17.061 -1.068,2.825 -0.959,6.583 1.18,8.942 2.002,2.249 4.58,3.484 7.571,3.1 C -8.721,6.554 -8.363,6.527 -8.034,6.417 -4.661,5.484 -2.524,2.441 0,0"
             style="fill:#feefad;fill-opacity:1;fill-rule:nonzero;stroke:none"
             id="path42"
             inkscape:connector-curvature="0" /></g><g
           id="g44"
           transform="matrix(1.930883,0,0,1.930883,252.00088,314.15578)"><path
             d="m 0,0 c 0.252,-0.063 0.318,-0.258 0.217,-0.485 -0.32,-0.724 -1.839,-1.604 -1.839,-1.604 0.156,-0.873 1.127,-1.862 1.616,-2.58 0.568,-0.835 1.224,-1.582 1.954,-2.28 0.816,-0.78 1.683,-1.502 2.589,-2.175 1.015,-0.741 2.029,-1.372 3.099,-1.975 3.018,-1.756 6.31,-2.908 9.739,-3.758 3.674,-0.905 8.064,-1.07 11.71,-0.11 -0.19,0.423 -0.327,0.906 -0.465,1.427 -0.137,0.658 -0.383,1.535 0.219,1.865 0.084,-2.249 2.003,-3.703 2.963,-5.596 0.056,-0.137 0.191,-0.431 -0.081,-0.466 -0.605,-0.077 -1.214,1.004 -1.544,1.425 -0.466,-0.658 -1.008,-1.535 -1.557,-2.166 -3.402,-3.922 -7.626,-7.296 -12.426,-8.558 -2.441,-0.631 -5.348,-0.603 -7.707,0.137 -4.526,1.454 -7.873,5.87 -9.49,10.067 -0.385,1.07 -0.769,2.112 -1.098,3.237 -0.412,1.426 -0.658,2.962 -0.879,4.416 -0.273,2.057 -0.685,4.169 -0.438,6.392 0.024,0.216 -1.448,-0.01 -1.627,-0.006 -0.464,0.012 -1.192,0.001 -1.417,0.526 0.329,0.384 0.829,0.222 1.323,0.277 1.055,0.15 2.066,0.424 3.023,0.884 0.459,0.22 0.906,0.469 1.334,0.744 C -0.56,-0.22 -0.302,0.076 0,0"
             style="fill:#231f20;fill-opacity:1;fill-rule:nonzero;stroke:none"
             id="path46"
             inkscape:connector-curvature="0" /></g><g
           id="g48"
           transform="matrix(1.930883,0,0,1.930883,250.69946,303.79466)"><path
             d="M 0,0 C 2.827,-3.322 5.885,-5.751 9.489,-7.434 9.024,-8.888 8.366,-10.259 7.651,-11.576 6.007,-11.055 4.086,-11 2.248,-11.137 1.673,-11.164 1.151,-11.329 0.603,-11.384 0.246,-10.396 -0.137,-9.436 -0.441,-8.366 -1.454,-4.91 -2.004,-1.152 -1.894,2.688 -1.318,1.838 -0.718,0.842 0,0"
             style="fill:#861910;fill-opacity:1;fill-rule:nonzero;stroke:none"
             id="path50"
             inkscape:connector-curvature="0" /></g><g
           id="g52"
           transform="matrix(1.930883,0,0,1.930883,291.18042,302.08196)"><path
             d="M 0,0 C 1.426,-0.412 3.09,-1.15 3.941,-1.746 4.365,-2.044 3.447,-2.789 3.062,-3.118 1.418,-4.599 -1.521,-5.52 -2.674,-5.075 -3.742,-4.663 -5.77,-2.268 -6.538,-0.484 -6.812,0.119 -7.004,0.915 -6.73,1.6 -4.371,1.49 -2.139,0.631 0,0"
             style="fill:#f78e80;fill-opacity:1;fill-rule:nonzero;stroke:none"
             id="path54"
             inkscape:connector-curvature="0" /></g><g
           id="g56"
           transform="matrix(1.930883,0,0,1.930883,279.29584,285.25625)"><path
             d="m 0,0 c -0.466,-1.618 -1.48,-2.88 -2.083,-4.361 -0.082,-0.192 0.164,-0.768 0.383,-0.521 1.152,1.343 1.673,3.072 2.496,4.608 1.483,-0.22 2.99,-0.795 4.473,-0.851 -0.961,-2.495 -2.195,-4.881 -3.485,-7.241 -2.578,0.137 -4.828,1.07 -7.241,1.646 -0.796,0.192 -1.673,0.411 -2.303,0.905 1.151,2.524 2.631,4.883 3.619,7.461 C -2.742,1.097 -1.452,0.329 0,0"
             style="fill:#ffffff;fill-opacity:1;fill-rule:nonzero;stroke:none"
             id="path58"
             inkscape:connector-curvature="0" /></g><g
           id="g60"
           transform="matrix(1.930883,0,0,1.930883,309.33072,283.45667)"><path
             d="m 0,0 c -2.442,-3.045 -4.774,-5.788 -8.231,-7.762 -0.982,1.246 -2.235,1.821 -3.167,2.506 0.74,1.838 1.467,3.116 2.098,4.927 2.25,-0.193 4.856,-0.329 6.994,0 C -1.565,-0.219 -0.768,0.027 0,0"
             style="fill:#861910;fill-opacity:1;fill-rule:nonzero;stroke:none"
             id="path62"
             inkscape:connector-curvature="0" /></g><g
           id="g64"
           transform="matrix(1.930883,0,0,1.930883,264.67905,279.83047)"><path
             d="m 0,0 c -0.571,-1.219 -1.041,-1.935 -1.371,-3.114 0.384,-0.632 1.181,-1.125 1.921,-1.317 2.879,-0.796 5.677,-1.893 8.668,-2.113 1.125,-0.081 1.315,1.482 1.973,2.223 0.961,-0.659 2.058,-1.235 2.771,-2.167 C 9.985,-9.176 4.005,-9.725 -0.246,-7.065 -2.962,-5.391 -4.883,-2.538 -6.171,0.177 -4.241,0.586 -1.704,0.655 0,0"
             style="fill:#f78e80;fill-opacity:1;fill-rule:nonzero;stroke:none"
             id="path66"
             inkscape:connector-curvature="0" /></g><g
           id="g68"
           transform="matrix(1.930883,0,0,1.930883,249.32081,268.20076)"><path
             d="m 0,0 c 0.534,-0.641 2.085,-2.523 3.291,-3.345 -5.266,0.137 -10.177,0.356 -15.195,-0.083 -0.495,-0.055 -2.369,-0.186 -3.117,-0.175 -0.756,0.403 -2.947,1.629 -3.741,2.754 0.85,0.247 1.783,0.328 2.689,0.466 2.988,0.439 6.801,0.686 9.955,0.713 C -4.17,0.357 -0.192,0.231 0,0"
             style="fill:#94979a;fill-opacity:1;fill-rule:nonzero;stroke:none"
             id="path70"
             inkscape:connector-curvature="0" /></g><g
           id="g72"
           transform="matrix(1.930883,0,0,1.930883,216.16755,260.94643)"><path
             d="m 0,0 c 2.275,-1.481 4.635,-2.771 7.021,-3.95 12.918,-6.281 28.884,-8.393 43.532,-5.459 0.684,0.138 1.536,0.22 2.303,0.467 1.785,0.521 3.429,1.125 5.13,1.837 -0.193,-1.508 -0.274,-3.017 -0.522,-4.553 -0.081,-0.411 -0.274,-0.768 -0.74,-0.904 -3.347,-1.153 -6.83,-1.949 -10.314,-2.58 -7.928,-1.344 -16.458,-1.398 -24.304,0.138 -3.51,0.686 -6.966,1.59 -10.258,2.77 -2.387,0.85 -5.065,1.934 -6.858,2.881 -0.873,1.569 -2.977,3.032 -6.199,3.236 -0.873,0.586 -2.359,1.481 -3.346,2.304 0.494,2.03 0.823,4.114 1.509,6.063 C -2.251,1.234 -1.044,0.658 0,0"
             style="fill:#ffffff;fill-opacity:1;fill-rule:nonzero;stroke:none"
             id="path74"
             inkscape:connector-curvature="0" /></g><g
           id="g76"
           transform="matrix(1.930883,0,0,1.930883,322.78319,248.87069)"><path
             d="m 0,0 c -1.125,-0.411 -2.306,-0.741 -3.429,-1.18 -0.537,-0.209 -3.068,1.205 -3.74,1.437 -1.204,0.417 -7.755,3.313 -11.65,3.83 1.538,0.357 3.62,1.21 4.995,1.646 C -11.243,4.916 -4.362,2.386 0,0"
             style="fill:#94979a;fill-opacity:1;fill-rule:nonzero;stroke:none"
             id="path78"
             inkscape:connector-curvature="0" /></g><g
           id="g80"
           transform="matrix(1.930883,0,0,1.930883,269.30545,255.26384)"><path
             d="m 0,0 c 0.519,-0.062 1.042,-0.097 1.581,-0.107 0.206,-0.004 2.933,-0.08 2.936,-0.05 -0.192,-2.057 -0.686,-4.142 -0.385,-6.253 -3.592,0.301 -7.405,0.905 -10.915,1.782 0.026,0.603 0.602,1.235 0.766,1.921 0.44,1.48 0.715,3.127 0.467,4.799 0.691,-0.628 2.316,-1.31 2.808,-1.475 C -1.83,0.31 -0.926,0.111 0,0"
             style="fill:#d2944c;fill-opacity:1;fill-rule:nonzero;stroke:none"
             id="path82"
             inkscape:connector-curvature="0" /></g><g
           id="g84"
           transform="matrix(1.930883,0,0,1.930883,204.72514,255.12096)"><path
             d="M 0,0 C -0.631,-0.933 0.85,-1.399 0.328,-2.387 L 0.11,-3.292 c -7.735,-1.015 -15.17,-2.798 -22.905,-3.895 0.52,0.979 1.394,1.672 2.317,2.251 1.352,0.847 3.012,1.744 4.524,2.246 0.565,0.186 4.28,1.169 6.338,0.666 -0.302,0.851 -2.006,1.974 -1.245,2.819 1.245,1.387 3.005,1.126 4.487,0.99 1.092,-0.1 2.552,-0.172 3.607,-0.497 C -2.542,1.218 0.111,0.165 0,0"
             style="fill:#d2944c;fill-opacity:1;fill-rule:nonzero;stroke:none"
             id="path86"
             inkscape:connector-curvature="0" /></g><g
           id="g88"
           transform="matrix(1.930883,0,0,1.930883,219.07932,255.12096)"><path
             d="m 0,0 c 0.219,-0.467 -0.55,-0.823 0,-1.18 0.383,-0.246 0.658,0.439 0.986,0.384 0.275,-0.039 0.248,-0.407 0.224,-0.619 -0.035,-0.302 -0.368,-0.5 -0.606,-0.638 -0.286,-0.165 -0.633,-0.204 -0.934,-0.06 -0.266,0.127 -0.57,0.19 -0.766,0.43 -0.078,0.097 -0.095,0.19 -0.096,0.311 -0.002,0.184 -0.015,0.37 -0.018,0.554 -0.004,0.324 0.205,0.63 0.466,0.806 C -0.528,0.136 -0.169,0.315 0,0"
             style="fill:#b2b5b7;fill-opacity:1;fill-rule:nonzero;stroke:none"
             id="path90"
             inkscape:connector-curvature="0" /></g><g
           id="g92"
           transform="matrix(1.930883,0,0,1.930883,210.44634,249.39975)"><path
             d="M 0,0 -1.54,-0.191 -1.264,0.85 C -0.879,0.494 -0.467,0.22 0,0"
             style="fill:#ffffff;fill-opacity:1;fill-rule:nonzero;stroke:none"
             id="path94"
             inkscape:connector-curvature="0" /></g><g
           id="g96"
           transform="matrix(1.930883,0,0,1.930883,101.6044,243.14948)"><path
             d="M 0,0 C 0.575,-1.838 -0.742,-4.361 0.521,-6.254 1.014,-6.967 1.398,-7.653 2.058,-8.283 3.155,-9.408 4.69,-9.572 6.199,-9.6 c 3.454,-0.055 7.405,0.357 10.011,-2.359 3.265,-3.456 5.706,-8.037 4.142,-12.261 -0.988,-2.633 -2.843,-4.48 -5.595,-6.584 -1.21,-0.924 -2.854,-1.454 -4.032,-2.633 -2.826,-2.853 -4.8,-7.351 -8.943,-8.695 -2.497,-0.796 -5.101,0.137 -7.297,1.399 -4.498,2.523 -7.323,7.269 -6.665,12.37 0.575,4.335 3.951,7.297 6.584,10.863 1.014,1.344 1.534,3.1 1.262,4.938 -0.329,2.221 -2.716,2.77 -3.814,4.608 -1.069,1.728 -1.782,4.306 -0.659,6.171 1.346,2.305 3.786,3.923 6.448,3.566 C -1.4,1.646 -0.302,1.016 0,0"
             style="fill:#ffffff;fill-opacity:1;fill-rule:nonzero;stroke:none"
             id="path98"
             inkscape:connector-curvature="0" /></g><g
           id="g100"
           transform="matrix(1.930883,0,0,1.930883,243.86414,241.87896)"><path
             d="M 0,0 C 0.767,0.164 0.055,1.481 1.044,0.933 0.879,0.247 1.209,-0.494 0.384,-0.85 0.244,-0.916 0.076,-0.948 -0.077,-0.961 c -0.145,-0.012 -0.291,-0.01 -0.438,-0.012 -0.129,-0.003 -0.263,-0.012 -0.387,0.026 -0.242,0.073 -0.354,0.321 -0.424,0.543 -0.04,0.118 -0.054,0.242 -0.054,0.367 10e-4,0.116 -0.004,0.25 0.062,0.349 0.078,0.12 0.108,0.259 0.172,0.387 0.045,0.089 0.108,0.179 0.163,0.264 0.093,0.141 0.3,0.206 0.426,0.071 C -0.489,0.96 -0.465,0.829 -0.459,0.732 -0.448,0.531 -0.55,0.237 -0.408,0.067 -0.309,-0.051 -0.133,-0.028 0,0"
             style="fill:#b2b5b7;fill-opacity:1;fill-rule:nonzero;stroke:none"
             id="path102"
             inkscape:connector-curvature="0" /></g><g
           id="g104"
           transform="matrix(1.930883,0,0,1.930883,318.7013,239.23172)"><path
             d="m 0,0 c 0.66,-0.165 0.495,1.124 1.072,0.85 0.383,-0.192 0.136,-0.713 0,-1.042 -0.164,-0.467 -0.605,-0.824 -1.125,-0.878 -0.446,-0.047 -0.676,0.442 -0.705,0.809 -0.024,0.305 -0.05,0.642 0.111,0.916 0.107,0.182 0.325,0.446 0.538,0.249 C 0.11,0.712 -0.136,0.246 0,0"
             style="fill:#b2b5b7;fill-opacity:1;fill-rule:nonzero;stroke:none"
             id="path106"
             inkscape:connector-curvature="0" /></g><g
           id="g108"
           transform="matrix(1.930883,0,0,1.930883,235.23116,236.53042)"><path
             d="m 0,0 c 6.584,-2.332 13.606,-3.923 20.929,-4.334 -0.243,-0.218 -0.246,-0.412 -0.411,-0.713 -0.576,-1.235 -0.302,-2.826 0.411,-3.895 -1.371,-3.21 -3.592,-6.008 -5.267,-9.08 -0.044,-0.524 0.122,-0.709 0.589,-0.791 1.552,-0.311 4.132,-0.831 4.735,-0.854 0.468,-1.626 1.018,-3.868 -0.105,-5.34 -0.494,-0.649 -1.094,-1.266 -1.383,-2.042 -0.453,-1.22 -0.55,-2.58 -0.078,-3.81 0.933,-2.442 1.209,-5.678 -0.547,-7.708 -1.865,-2.194 -2.99,-5.322 -2.167,-8.036 0.603,-1.921 1.673,-3.841 1.069,-6.036 -0.547,-2.029 -2.605,-3.319 -2.907,-5.348 -0.22,-1.619 -0.302,-3.265 0.327,-4.855 0.248,-0.027 0.386,0.192 0.386,0.384 0,1.222 -0.13,2.477 0.096,3.688 0.235,1.267 0.877,2.123 1.697,3.071 0.44,0.508 0.884,1.105 1.115,1.744 0.521,1.316 0.685,2.852 0.384,4.196 -0.467,2.251 -1.921,4.307 -1.234,6.858 0.591,2.18 2.423,3.76 3.158,5.873 0.734,2.1 0.469,4.643 -0.472,6.635 -0.364,0.775 -0.381,1.573 -0.103,2.374 0.475,1.379 1.623,2.414 2.235,3.726 0.314,0.67 0.449,1.35 0.34,2.089 -0.035,0.236 -0.635,2.495 -0.743,2.482 1.005,0.116 2.113,0.093 3.125,0.339 0.424,0.103 0.971,0.12 1.263,0.429 0.325,0.34 0.232,1.26 0.169,1.752 -0.194,1.477 -1.155,6.312 -2.142,8.013 0.41,0.328 0.926,0.892 1.175,1.578 0.301,0.878 0.304,2.289 -0.244,3.085 3.511,0.219 7.077,0.301 10.589,0.85 3.208,0.493 6.473,1.427 9.627,2.304 0.165,-2.853 -0.027,-5.733 -0.329,-8.477 -1.179,-0.492 -2.223,-0.739 -3.429,-1.123 -3.044,-1.015 -6.637,-1.152 -9.929,-1.18 -0.603,-0.028 -1.618,-0.164 -1.591,-0.795 0.107,-6.47 0.031,-12.258 -1.053,-18.234 -0.024,-0.131 0.009,-0.676 0.372,-0.759 0.247,-0.057 0.478,-0.065 0.735,-0.096 2.527,-0.317 6.642,0.211 9.299,1.232 0.711,0.273 1.4,0.576 2.114,0.878 -1.947,-9.486 -4.254,-17.676 -6.991,-28.341 -0.296,-1.153 -0.648,-2.169 -1.392,-3.115 -0.617,-0.787 -1.489,-1.492 -2.544,-2.126 -4.182,-2.509 -11.249,-3.901 -16.942,-4.821 -0.441,-0.081 -0.96,-0.163 -1.427,-0.192 -9.465,-0.658 -19.503,1.949 -27.21,7.709 -4.006,3.017 -6.83,7.213 -6.913,12.453 -0.11,11.411 4.579,22.191 4.086,33.629 2.414,0.795 4.938,1.371 7.242,2.304 l 3.044,1.7 c 2.97,2.564 3.978,4.966 3.95,8.229 C -3.319,-1.18 -3.373,0.137 -3.895,1.399 -2.153,0.887 -1.315,0.466 0,0"
             style="fill:#ffffff;fill-opacity:1;fill-rule:nonzero;stroke:none"
             id="path110"
             inkscape:connector-curvature="0" /></g><g
           id="g112"
           transform="matrix(1.930883,0,0,1.930883,277.92105,237.43021)"><path
             d="m 0,0 c 0.137,-0.494 0.083,-1.152 -0.466,-1.372 -0.439,-0.191 -1.014,-0.685 -1.508,-0.136 -0.33,0.383 -0.441,1.014 -0.275,1.508 0.082,0.22 0.328,0.22 0.548,0.192 0.067,-0.009 0.112,-0.259 0.122,-0.307 0.023,-0.12 0.027,-0.242 0.06,-0.358 0.048,-0.164 0.178,-0.423 0.37,-0.285 0.176,0.128 0.449,0.181 0.49,0.429 0.056,0.357 -0.383,0.85 0.056,1.07 C -0.109,0.933 -0.109,0.302 0,0"
             style="fill:#b2b5b7;fill-opacity:1;fill-rule:nonzero;stroke:none"
             id="path114"
             inkscape:connector-curvature="0" /></g><g
           id="g116"
           transform="matrix(1.930883,0,0,1.930883,303.23879,236.53042)"><path
             d="m 0,0 c -0.083,-0.577 0.082,-1.591 -0.879,-1.563 -0.327,0.026 -0.768,-0.028 -0.987,0.328 -0.197,0.338 -0.149,0.815 -0.074,1.182 0.029,0.133 0.16,0.386 0.312,0.406 0.188,0.025 0.252,-0.225 0.285,-0.369 0.033,-0.144 0.04,-0.388 0.166,-0.488 0.347,-0.273 0.554,0.083 0.546,0.381 -0.007,0.231 -0.148,0.629 0.165,0.726 C -0.028,0.74 0.026,0.329 0,0"
             style="fill:#b2b5b7;fill-opacity:1;fill-rule:nonzero;stroke:none"
             id="path118"
             inkscape:connector-curvature="0" /></g><g
           id="g120"
           transform="matrix(1.930883,0,0,1.930883,284.27559,227.79124)"><path
             d="m 0,0 c 0.548,-0.796 0.545,-2.207 0.244,-3.085 -0.249,-0.686 -0.765,-1.25 -1.175,-1.578 0.987,-1.701 1.948,-6.536 2.142,-8.013 0.063,-0.492 0.156,-1.412 -0.169,-1.752 -0.292,-0.309 -0.839,-0.326 -1.263,-0.429 -1.012,-0.246 -2.12,-0.223 -3.125,-0.339 0.108,0.013 0.708,-2.246 0.743,-2.482 0.109,-0.739 -0.026,-1.419 -0.34,-2.089 -0.612,-1.312 -1.76,-2.347 -2.235,-3.726 -0.278,-0.801 -0.261,-1.599 0.103,-2.374 0.941,-1.992 1.206,-4.535 0.472,-6.635 -0.735,-2.113 -2.567,-3.693 -3.158,-5.873 -0.687,-2.551 0.767,-4.607 1.234,-6.858 0.301,-1.344 0.137,-2.88 -0.384,-4.196 -0.231,-0.639 -0.675,-1.236 -1.115,-1.744 -0.82,-0.948 -1.462,-1.804 -1.697,-3.071 -0.226,-1.211 -0.096,-2.466 -0.096,-3.688 0,-0.192 -0.138,-0.411 -0.386,-0.384 -0.629,1.59 -0.547,3.236 -0.327,4.855 0.302,2.029 2.36,3.319 2.907,5.348 0.604,2.195 -0.466,4.115 -1.069,6.036 -0.823,2.714 0.302,5.842 2.167,8.036 1.756,2.03 1.48,5.266 0.547,7.708 -0.472,1.23 -0.375,2.59 0.078,3.81 0.289,0.776 0.889,1.393 1.383,2.042 1.123,1.472 0.573,3.714 0.105,5.34 -0.603,0.023 -3.183,0.543 -4.735,0.854 -0.467,0.082 -0.633,0.267 -0.589,0.791 1.675,3.072 3.896,5.87 5.267,9.08 -0.713,1.069 -0.987,2.66 -0.411,3.895 0.165,0.301 0.168,0.495 0.411,0.713 C -3.981,0.102 -1.63,0.003 0,0"
             style="fill:#b2b5b7;fill-opacity:1;fill-rule:nonzero;stroke:none"
             id="path122"
             inkscape:connector-curvature="0" /></g><g
           id="g124"
           transform="matrix(1.930883,0,0,1.930883,283.45689,225.70396)"><path
             d="M 0,0 C 0.169,-0.945 -0.206,-1.607 -0.701,-2.266 -1.425,-3.354 -3.038,-2.96 -3.596,-1.918 -4.025,-1.12 -3.648,0.17 -3.004,0.752 -2.428,1.273 -0.282,1.547 0,0"
             style="fill:#ffffff;fill-opacity:1;fill-rule:nonzero;stroke:none"
             id="path126"
             inkscape:connector-curvature="0" /></g><g
           id="g128"
           transform="matrix(1.930883,0,0,1.930883,280.72855,217.99201)"><path
             d="m 0,0 c 0.631,-2.907 1.618,-5.65 2.221,-8.613 -1.261,-0.438 -3.016,-0.493 -4.388,-0.521 -1.317,-0.027 -2.907,0.165 -4.168,0.905 1.48,2.907 3.153,5.459 4.551,8.367 C -1.317,-0.219 -0.521,-0.329 0,0"
             style="fill:#ffffff;fill-opacity:1;fill-rule:nonzero;stroke:none"
             id="path130"
             inkscape:connector-curvature="0" /></g><g
           id="g132"
           transform="matrix(1.930883,0,0,1.930883,121.83233,215.08024)"><path
             d="m 0,0 c -2.878,-0.961 -5.595,-2.441 -7.432,-5.267 -1.179,-1.783 -1.865,-3.73 -2.111,-5.87 -0.249,1.152 -0.029,2.497 0.136,3.758 0.193,1.618 1.288,2.989 2.36,4.279 0.74,0.905 1.754,1.865 2.824,2.386 0.633,0.275 1.235,0.576 1.92,0.906 0.631,0.329 1.153,0.383 1.976,0.136 C -0.19,0.274 0.139,0.301 0,0"
             style="fill:#231f20;fill-opacity:1;fill-rule:nonzero;stroke:none"
             id="path134"
             inkscape:connector-curvature="0" /></g><g
           id="g136"
           transform="matrix(1.930883,0,0,1.930883,316.23749,181.11408)"><path
             d="m 0,0 c -1.033,-1.092 -8.214,-2.817 -11.615,-2.159 0.844,2.485 1.76,11.445 0.851,17.39 2.303,0.357 4.608,0.248 6.912,0.659 2.386,0.384 4.855,0.823 7.049,1.838 C 2.567,11.858 0.124,0.131 0,0"
             style="fill:#fddd4e;fill-opacity:1;fill-rule:nonzero;stroke:none"
             id="path138"
             inkscape:connector-curvature="0" /></g><g
           id="g140"
           transform="matrix(1.930883,0,0,1.930883,313.14422,206.70986)"><path
             d="m 0,0 c 0.192,-0.52 0.329,-1.206 0.055,-1.727 0.857,-0.402 2.118,-0.524 2.642,-1.43 0.368,-0.637 0.204,-1.725 -0.526,-2.077 0.071,0.033 0.038,-1.75 0.021,-1.916 -0.065,-0.714 -0.209,-1.378 -0.486,-2.046 -0.521,-1.249 -1.731,-2.614 -2.831,-2.791 -1.074,-0.171 -2.497,1.455 -3.292,2.442 -0.713,0.878 -0.877,1.92 -0.933,3.072 -0.385,0.247 -0.85,0.549 -0.986,0.932 -0.683,1.912 1.195,2.827 2.655,3.186 1.361,0.337 0.825,1.145 1.297,2.113 C -2.014,0.52 -0.408,0.994 0,0"
             style="fill:#231f20;fill-opacity:1;fill-rule:nonzero;stroke:none"
             id="path142"
             inkscape:connector-curvature="0" /></g><g
           id="g144"
           transform="matrix(1.930883,0,0,1.930883,192.2246,163.8655)"><path
             d="m 0,0 c -0.659,-3.21 -0.958,-6.666 -1.179,-9.684 -1.482,0.603 -2.552,2.167 -3.485,3.428 -3.592,4.855 0.138,11.083 -2.496,16.376 -0.904,1.811 -2.44,3.758 -4.415,4.17 -1.023,0.204 -1.228,0.312 -2.25,0.099 -0.928,-0.193 -1.952,-1.32 -2.167,-1.553 -0.223,-0.243 -0.109,-0.686 0.275,-0.85 0.658,0.85 1.673,1.618 2.881,1.233 0.781,-0.248 1.565,-0.669 2.177,-1.213 2.556,-2.282 1.967,-5.67 2.11,-8.711 0.018,-0.391 -0.065,-2.775 -0.065,-2.775 -1.59,-0.905 -3.401,-0.604 -5.13,-0.054 -3.619,1.096 -6.553,4.882 -7.569,8.282 -0.548,1.784 -0.411,3.484 -0.33,5.322 1.784,1.29 3.923,1.948 5.981,2.771 2.743,1.097 5.458,2.222 8.312,2.962 3.455,0.933 6.719,2.085 10.257,2.826 C 2.853,14.783 1.563,7.296 0,0"
             style="fill:#d2944c;fill-opacity:1;fill-rule:nonzero;stroke:none"
             id="path146"
             inkscape:connector-curvature="0" /></g><g
           id="g148"
           transform="matrix(1.930883,0,0,1.930883,312.34483,204.53955)"><path
             d="m 0,0 c 0,-0.521 -0.438,-1.316 0.137,-1.591 0.824,-0.384 2.169,-0.493 2.169,-1.645 -0.879,0.191 -2.169,0.191 -3.155,0 -1.318,-0.248 -2.633,-0.741 -3.95,-0.905 -0.302,-0.056 -0.383,0.438 -0.246,0.657 0.851,1.453 2.934,0.96 3.73,2.414 0.302,0.549 0.081,1.289 0.411,1.783 C -0.355,0.823 0,0.549 0,0"
             style="fill:#d2944c;fill-opacity:1;fill-rule:nonzero;stroke:none"
             id="path150"
             inkscape:connector-curvature="0" /></g><g
           id="g152"
           transform="matrix(1.930883,0,0,1.930883,315.95172,196.11897)"><path
             d="m 0,0 c -0.108,-2.245 -0.55,-4.142 -2.387,-5.322 -0.796,-0.521 -1.427,0.302 -1.894,0.795 -0.987,0.988 -1.973,2.305 -1.644,3.759 1.589,0.384 3.454,0.932 5.129,0.905 L 0,0"
             style="fill:#f9a720;fill-opacity:1;fill-rule:nonzero;stroke:none"
             id="path154"
             inkscape:connector-curvature="0" /></g><g
           id="g156"
           transform="matrix(1.930883,0,0,1.930883,328.23407,163.33257)"><path
             d="m 0,0 c 1.125,-2.304 1.373,-5.512 0.413,-7.954 -0.494,0 -0.96,0.96 -1.179,0.247 -0.275,-0.741 0.467,-1.564 0.658,-2.359 0.412,-1.837 0.494,-3.951 -0.548,-5.541 1.069,0.494 1.508,1.619 1.865,2.579 1.069,0.137 2.139,-0.412 3.016,-1.043 0.248,0.192 -0.218,0.494 0.138,0.576 -0.604,1.207 -1.865,1.701 -2.964,2.112 0.056,0.877 -0.327,1.591 -0.464,2.359 1.928,0.192 4.141,1.179 5.979,2.304 1.152,-3.045 0.658,-6.886 -1.042,-9.463 -2.086,-3.155 -5.624,-4.334 -9.161,-4.032 -2.113,0.191 -3.924,1.316 -5.596,2.633 -0.686,0.576 -1.131,1.21 -1.371,2.056 0.439,1.977 1.26,3.76 1.698,5.734 C -7.377,-4.717 -5.786,0.247 -4.99,5.35 -2.385,4.883 -0.986,2.085 0,0"
             style="fill:#ffffff;fill-opacity:1;fill-rule:nonzero;stroke:none"
             id="path158"
             inkscape:connector-curvature="0" /></g><g
           id="g160"
           transform="matrix(1.930883,0,0,1.930883,227.07318,104.86157)"><path
             d="m 0,0 c -0.201,-2.044 -0.229,-3.857 -0.449,-5.914 -4.58,1.563 -9.479,1.799 -14.418,1.58 0.577,3.703 0.906,7.57 1.564,11.246 C -9.188,3.84 -4.771,1.481 0,0"
             style="fill:#ffffff;fill-opacity:1;fill-rule:nonzero;stroke:none"
             id="path162"
             inkscape:connector-curvature="0" /></g><g
           id="g164"
           transform="matrix(1.930883,0,0,1.930883,294.20226,110.23908)"><path
             d="m 0,0 c 0.182,-1.66 0.755,-5.37 0.922,-7.201 -4.578,0.802 -10.286,-0.083 -14.949,-1.893 -0.275,1.618 -0.302,3.265 -0.713,4.854 C -9.775,-3.416 -2.899,-1.337 0,0"
             style="fill:#ffffff;fill-opacity:1;fill-rule:nonzero;stroke:none"
             id="path166"
             inkscape:connector-curvature="0" /></g><g
           id="g168"
           transform="matrix(1.930883,0,0,1.930883,222.15715,91.99224)"><path
             d="m 0,0 c 1.216,-0.234 3.013,-0.741 3.588,-1.948 1.264,-2.661 1.235,-6.007 1.318,-9.025 0.22,-7.104 -0.083,-14.209 -0.575,-21.34 -3.046,0.301 -6.612,0.275 -9.74,0.548 -9.242,0.768 -19.145,-0.083 -28.306,0.193 0.11,3.511 0.602,6.829 1.507,10.011 0.385,1.345 1.208,2.551 2.032,3.731 0.986,1.398 2.303,2.523 3.703,3.182 4.607,2.112 10.806,1.7 15.388,0.247 0.876,-0.274 1.865,-0.576 2.714,-0.796 -2.03,1.728 -4.387,2.304 -6.995,2.771 l -1.892,0.192 c 0.329,3.84 0.742,7.791 1.976,11.328 0.193,0.549 0.652,1.376 1.308,1.513 1.74,0.395 4.092,0.542 5.966,0.422 C -5.591,0.877 -1.987,0.379 0,0"
             style="fill:#b2b5b7;fill-opacity:1;fill-rule:nonzero;stroke:none"
             id="path170"
             inkscape:connector-curvature="0" /></g><g
           id="g172"
           transform="matrix(1.930883,0,0,1.930883,300.16675,92.942234)"><path
             d="m 0,0 c 0.884,-0.432 1.737,-5.027 2.026,-7.044 0.063,-0.433 0.703,-5.603 0.799,-5.6 -3.127,-0.111 -5.679,-1.07 -8.284,-2.387 -0.274,-0.109 -0.494,-0.466 -0.657,-0.658 1.042,0.137 2.165,0.576 3.209,0.878 3.591,0.932 7.24,1.481 11.135,0.769 9.26,-1.696 10.237,-10.127 11.001,-18.022 -4.553,-0.358 -8.999,0 -13.633,0.137 -7.956,0.219 -16.432,-0.495 -24.358,-0.878 -0.192,2.906 -0.575,13.968 -0.575,13.968 l 0.054,8.964 c 0.192,2.468 0.006,4.695 0.995,6.918 0.467,1.068 1.637,1.969 2.626,2.216 2.522,0.657 5.128,1.207 7.707,1.261 C -5.24,0.577 -1.419,0.697 0,0"
             style="fill:#b2b5b7;fill-opacity:1;fill-rule:nonzero;stroke:none"
             id="path174"
             inkscape:connector-curvature="0" /></g><g
           id="g176"
           transform="matrix(1.930883,0,0,1.930883,229.35355,62.436214)"><path
             d="m 0,0 c 0.026,-0.913 0.041,-1.804 -0.108,-2.711 -0.248,-1.494 -0.643,-3.687 -2.238,-4.337 -1.338,-0.545 -2.648,0.53 -2.975,1.837 -0.506,2.018 -0.593,4.2 -0.128,6.236 0.289,1.264 0.751,2.879 1.784,3.74 C -2.233,5.956 -0.873,4.41 -0.397,3.07 -0.046,2.077 -0.029,1.039 0,0"
             style="fill:#ef2e31;fill-opacity:1;fill-rule:nonzero;stroke:none"
             id="path178"
             inkscape:connector-curvature="0" /></g><g
           id="g180"
           transform="matrix(1.930883,0,0,1.930883,270.99883,72.266339)"><path
             d="m 0,0 c 0.896,-0.421 1.491,-1.774 1.788,-2.533 0.586,-1.491 0.826,-3.072 0.809,-4.669 -0.017,-1.628 -0.296,-5.572 -2.881,-5.109 -1.708,0.307 -2.435,3.062 -2.702,4.509 -0.379,2.049 -0.248,4.145 0.453,6.113 0.248,0.695 0.734,1.424 1.444,1.71 C -0.688,0.184 -0.323,0.154 0,0"
             style="fill:#ef2e31;fill-opacity:1;fill-rule:nonzero;stroke:none"
             id="path182"
             inkscape:connector-curvature="0" /></g><g
           id="g184"
           transform="matrix(1.930883,0,0,1.930883,227.74319,63.922994)"><path
             d="m 0,0 c 0.031,-1.128 -0.391,-7.647 -2.663,-6.905 -1.15,0.376 -1.295,1.963 -1.358,2.953 -0.193,2.168 0.165,4.692 1.315,6.583 0.556,0.909 1.329,0.926 1.933,0.046 C -0.235,1.891 -0.026,0.962 0,0"
             style="fill:#ef2e31;fill-opacity:1;fill-rule:nonzero;stroke:none"
             id="path186"
             inkscape:connector-curvature="0" /></g><g
           id="g188"
           transform="matrix(1.930883,0,0,1.930883,273.84496,62.808874)"><path
             d="M 0,0 C 0.248,-1.151 0.762,-6.695 -1.586,-6.392 -2.88,-6.224 -3.3,-3.796 -3.484,-2.771 -3.72,-1.472 -3.751,-0.158 -3.649,1.163 -3.596,1.87 -3.102,3.982 -2.34,4.168 -0.855,4.53 -0.237,1.094 0,0"
             style="fill:#ef2e31;fill-opacity:1;fill-rule:nonzero;stroke:none"
             id="path190"
             inkscape:connector-curvature="0" /></g><g
           id="g192"
           transform="matrix(1.930883,0,0,1.930883,202.55289,56.081678)"><path
             d="m 0,0 c 2.935,-2.168 4.005,-5.514 3.483,-8.97 -0.191,-1.179 -0.466,-2.359 -0.85,-3.484 0.138,4.143 0.165,8.532 -3.099,11.384 -2.413,2.112 -5.376,2.77 -8.558,2.907 -1.262,0.055 -2.99,-0.164 -4.333,0.329 0.052,0.302 0.492,0.302 0.767,0.331 C -8.063,2.743 -3.565,2.578 0,0"
             style="fill:#231f20;fill-opacity:1;fill-rule:nonzero;stroke:none"
             id="path194"
             inkscape:connector-curvature="0" /></g><g
           id="g196"
           transform="matrix(1.930883,0,0,1.930883,317.59104,60.530432)"><path
             d="m 0,0 c 0.056,-0.138 -0.082,-0.192 -0.136,-0.274 -4.005,-0.274 -8.503,0.109 -11.907,-2.304 -4.031,-2.854 -4.222,-7.625 -3.948,-12.18 -1.315,3.319 -1.455,7.763 0.768,10.671 2.276,2.963 5.649,4.032 9.106,4.28 C -4.169,0.33 -2.002,0.357 0,0"
             style="fill:#231f20;fill-opacity:1;fill-rule:nonzero;stroke:none"
             id="path198"
             inkscape:connector-curvature="0" /></g><g
           id="g200"
           transform="matrix(1.930883,0,0,1.930883,228.87469,27.958367)"><path
             d="M 0,0 C 1.263,0.055 2.278,-0.631 2.88,-1.564 3.387,-2.346 3.481,-3.747 2.51,-4.216 1.662,-4.625 0.566,-4.421 -0.337,-4.468 c -1.254,-0.064 -2.531,0.047 -3.789,0.028 -8.638,-0.119 -17.271,0.243 -25.909,0.243 -2.442,0 -4.882,-0.055 -7.378,0.329 -1.044,0.164 -2.579,0.521 -2.633,1.892 0,0.769 0.464,1.646 1.262,1.92 2.002,0.633 4.305,0.412 6.307,0.522 5.021,0.246 10.782,0.301 15.746,0.191 C -11.082,0.52 -5.623,-0.22 0,0"
             style="fill:#94979a;fill-opacity:1;fill-rule:nonzero;stroke:none"
             id="path202"
             inkscape:connector-curvature="0" /></g><g
           id="g204"
           transform="matrix(1.930883,0,0,1.930883,331.0435,28.485498)"><path
             d="M 0,0 C 1.619,-0.109 3.429,0.083 4.937,-0.411 5.567,-0.603 5.898,-1.262 6.062,-1.837 6.199,-2.387 6.043,-2.772 5.662,-3.072 3.71,-4.61 0.22,-4.25 -2.441,-4.416 c -8.064,-0.465 -16.128,-0.218 -24.276,-0.329 -3.099,-0.027 -6.692,-0.383 -9.736,0.192 -0.494,0.11 -0.659,0.686 -0.742,1.124 -0.219,1.291 0.55,2.771 1.728,2.909 10.203,1.152 20.518,1.234 30.804,0.713 C -3.1,0.111 -1.536,0.083 0,0"
             style="fill:#94979a;fill-opacity:1;fill-rule:nonzero;stroke:none"
             id="path206"
             inkscape:connector-curvature="0" /></g><g
           id="g208"
           transform="matrix(1.930883,0,0,1.930883,287.82455,27.958367)"><path
             d="m 0,0 c 0.028,-0.66 -0.631,-1.51 -0.246,-2.359 0.165,-0.357 0.356,-0.685 0.657,-0.988 -0.135,-0.247 -0.407,-0.089 -0.547,0 -0.356,0.222 -0.732,0.716 -0.786,1.073 C -1.06,-1.425 -0.962,-0.448 0,0"
             style="fill:#231f20;fill-opacity:1;fill-rule:nonzero;stroke:none"
             id="path210"
             inkscape:connector-curvature="0" /></g><g
           id="g212"
           transform="matrix(1.930883,0,0,1.930883,211.4504,24.673935)"><path
             d="m 0,0 c -0.076,-0.703 -0.276,-1.78 -1.099,-1.966 -0.241,0.661 0.302,1.115 0.292,1.749 C -0.814,0.24 -1.07,0.474 -1.26,0.848 -1.498,1.313 -1.401,1.439 -0.971,1.289 -0.495,1.123 0.039,0.527 0,0"
             style="fill:#231f20;fill-opacity:1;fill-rule:nonzero;stroke:none"
             id="path214"
             inkscape:connector-curvature="0" /></g><g
           id="g216"
           transform="matrix(1.930883,0,0,1.930883,289.87708,304.71762)"><path
             d="m 0,0 c -2.574,0.785 -3.627,1.035 -6.247,1.222 -0.744,0.054 -1.788,0.579 -3.077,1.184 -0.691,0.325 -3.259,2.656 -4.301,3.837 -1.756,1.946 -3.456,4.251 -5.677,5.65 1.839,2.788 4.478,8.982 4.731,9.71 0.2,0.568 0.313,1.161 0.206,1.811 -0.441,2.578 -0.989,6.062 0.74,8.311 0.329,0.411 0.932,0.521 1.315,0.521 1.233,0 2.376,-0.52 3.246,-1.388 1.084,-1.084 0.65,-2.197 0.183,-3.55 -0.603,-1.59 -1.863,-3.236 -1.591,-4.746 1.675,-0.219 3.567,-0.136 5.131,-0.383 6.171,-0.988 11.328,-3.204 16.293,-7.044 0.714,-0.549 1.967,-1.927 2.513,-1.392 1.877,1.84 3.85,4.02 6.54,4.267 0.656,0.082 1.563,-0.055 2.111,-0.576 0.686,-0.659 0.577,-1.838 0.192,-2.579 C 21.647,13.566 20.437,12.944 19.136,12.467 18.28,12.153 15.489,11.208 14.947,11.093 14.427,10.982 13.896,10.888 13.365,10.768 13.092,10.741 12.828,8.544 12.67,7.691 12.107,4.671 11.173,1.636 10.787,-1.465 9.662,-1.747 8.554,-2.104 7.42,-2.345 6.927,-2.449 6.352,-2.69 5.852,-2.692 5.412,-2.693 4.847,-2.196 4.473,-1.972 3.702,-1.508 2.957,-1.024 2.081,-0.765 1.375,-0.556 0.675,-0.206 0,0"
             style="fill:#d2944c;fill-opacity:1;fill-rule:nonzero;stroke:none"
             id="path218"
             inkscape:connector-curvature="0" /></g><g
           id="g220"
           transform="matrix(1.930883,0,0,1.930883,294.3741,303.37373)"><path
             d="m 0,0 c 1.669,-0.563 3.555,-0.38 5.198,0.713 0.71,0.473 1.597,1.151 2.082,1.864 0,0 0.553,0.816 0.738,1.409 0.183,0.593 0.294,0.964 0.34,1.392 0.047,0.428 0.12,0.555 0.062,1.234 -0.082,0.916 -0.405,2.569 -1.005,3.357 0,0 0.36,0.558 1.646,1.769 L 8.284,12.51 6.776,10.781 c -0.342,0.436 -0.947,0.933 -1.41,1.176 0.279,0.871 0.924,2.24 0.924,2.24 L 5.204,14.701 4.338,12.444 C 3.477,12.78 3.234,12.729 2.392,12.793 l 0.021,2.334 -1.112,-0.002 0.094,-2.4 c -0.329,-0.093 -2.237,-0.468 -3.14,-1.261 -0.276,0.878 -0.714,1.784 -1.371,2.524 0.409,0.685 1.453,2.03 1.453,2.03 l -0.877,0.658 -1.373,-1.838 c -0.409,0.369 -1.104,0.833 -1.582,1.037 0.203,0.891 0.732,2.309 0.732,2.309 l -1.125,0.412 -0.676,-2.322 c -0.883,0.263 -1.633,0.184 -2.479,0.173 l -0.185,2.327 -1.106,-0.1 0.305,-2.382 c -0.872,-0.334 -2.414,-1.042 -3.292,-2.057 -1.262,-1.454 -1.866,-3.265 -1.784,-5.267 0.028,-0.466 0.22,-0.851 0.329,-1.316 0.604,-2.332 2.689,-4.225 4.993,-4.801 2.113,-0.521 4.032,0.22 5.595,1.371 C -3.83,3.866 -3.721,3.317 -3.447,2.851 -2.626,1.45 -1.39,0.467 0,0"
             style="fill:#231f20;fill-opacity:1;fill-rule:nonzero;stroke:none"
             id="path222"
             inkscape:connector-curvature="0" /></g><g
           id="g224"
           transform="matrix(1.930883,0,0,1.930883,289.05452,326.17359)"><path
             d="m 0,0 c 1.219,-2.76 -0.115,-6.218 -2.748,-7.632 -1.027,-0.552 -2.19,-0.766 -3.348,-0.667 -2.221,0.192 -4.47,2.003 -5.073,4.225 -0.631,2.25 -0.138,4.718 1.645,6.309 C -6.342,5.075 -1.491,3.38 0,0"
             style="fill:#ffffff;fill-opacity:1;fill-rule:nonzero;stroke:none"
             id="path226"
             inkscape:connector-curvature="0" /></g><g
           id="g228"
           transform="matrix(1.930883,0,0,1.930883,307.52921,320.95442)"><path
             d="m 0,0 c 0.987,-1.645 1.014,-3.895 0.191,-5.541 -0.712,-1.426 -2.221,-2.305 -3.731,-2.743 -1.739,-0.505 -3.563,-0.056 -4.924,1.106 -0.876,0.748 -1.433,1.748 -1.877,2.845 1.84,1.725 1.944,4.119 1.974,6.034 0.003,0.271 2.319,0.9 2.577,0.949 1.157,0.219 2.537,0.135 3.568,-0.483 C -1.398,1.674 -0.494,0.879 0,0"
             style="fill:#ffffff;fill-opacity:1;fill-rule:nonzero;stroke:none"
             id="path230"
             inkscape:connector-curvature="0" /></g><g
           id="g232"
           transform="matrix(1.930883,0,0,1.930883,279.82297,324.12299)"><path
             d="m 0,0 c 0.005,-0.007 0.01,-0.013 0.016,-0.02 0.759,-0.934 0.383,-2.877 -0.984,-3.015 -0.978,-0.099 -1.941,0.546 -2.062,1.537 -0.09,0.74 0.321,1.472 0.946,1.85 C -1.475,0.721 -0.478,0.563 0,0"
             style="fill:#231f20;fill-opacity:1;fill-rule:nonzero;stroke:none"
             id="path234"
             inkscape:connector-curvature="0" /></g><g
           id="g236"
           transform="matrix(1.930883,0,0,1.930883,299.59907,318.28787)"><path
             d="m 0,0 c 0.005,-0.007 0.011,-0.013 0.015,-0.019 0.759,-0.935 0.384,-2.878 -0.984,-3.017 -0.978,-0.098 -1.94,0.547 -2.06,1.538 -0.091,0.741 0.32,1.472 0.945,1.85 C -1.476,0.721 -0.48,0.562 0,0"
             style="fill:#231f20;fill-opacity:1;fill-rule:nonzero;stroke:none"
             id="path238"
             inkscape:connector-curvature="0" /></g><g
           id="g240"
           transform="matrix(1.930883,0,0,1.930883,267.85536,356.65258)"><path
             d="m 0,0 c -0.218,-0.768 -0.684,-1.481 -1.315,-2.03 0.41,1.481 0.96,3.402 0.796,5.075 C 0.249,2.332 0.304,0.988 0,0"
             style="fill:#a85a0c;fill-opacity:1;fill-rule:nonzero;stroke:none"
             id="path242"
             inkscape:connector-curvature="0" /></g><g
           id="g244"
           transform="matrix(1.930883,0,0,1.930883,327.12381,332.3949)"><path
             d="m 0,0 c -1.673,-0.768 -2.907,-2.167 -4.608,-2.825 -0.329,0.96 0.769,1.262 1.371,1.701 0.933,0.686 2.086,0.987 3.237,1.179 L 0,0"
             style="fill:#a85a0c;fill-opacity:1;fill-rule:nonzero;stroke:none"
             id="path246"
             inkscape:connector-curvature="0" /></g><g
           id="g248"
           transform="matrix(1.930883,0,0,1.930883,326.80328,250.74944)"
           style="fill:#ffffff;fill-opacity:1;stroke:#ffffff;stroke-opacity:1"><path
             d="m 0,0 c 3.95,1.618 7.409,3.773 10.617,6.871 1.838,1.756 3.895,3.595 5.348,5.789 1.538,2.331 2.553,4.909 3.676,7.434 4.912,10.944 5.294,25.674 0.66,36.947 -6.914,16.843 -24.083,29.213 -41.803,30.338 -1.566,0.11 -5.157,0.042 -5.213,-0.093 l 0.219,1.354 c 20.491,1.317 40.186,-11.794 47.922,-30.61 1.507,-3.649 2.44,-7.544 3.099,-11.467 0.246,-1.481 0.383,-2.825 0.466,-4.416 C 25.348,33.781 23.785,25.277 20.163,17.542 17.53,11.837 13.607,6.789 8.395,2.923 6.448,1.468 4.419,0.151 2.333,-0.974 L 0,0"
             style="fill:#ffffff;fill-opacity:1;fill-rule:nonzero;stroke:#ffffff;stroke-opacity:1"
             id="path250"
             inkscape:connector-curvature="0" /></g><g
           id="g252"
           transform="matrix(1.930883,0,0,1.930883,211.18587,268.73368)"
           style="fill:#ffffff;fill-opacity:1;stroke:#ffffff;stroke-opacity:1"><path
             d="m 0,0 c -11.986,12.59 -15.662,32.613 -9.354,48.962 1.262,3.236 2.77,6.362 4.689,9.351 l -0.656,1.594 c -0.745,-0.745 -4.965,-8.586 -6.474,-13.304 -5.212,-16.486 -1.156,-34.236 9.834,-46.745 L 0,0"
             style="fill:#ffffff;fill-opacity:1;fill-rule:nonzero;stroke:#ffffff;stroke-opacity:1"
             id="path254"
             inkscape:connector-curvature="0" /></g><g
           id="g256"
           transform="matrix(1.930883,0,0,1.930883,269.29,404.48055)"><path
             d="m 0,0 c -1.977,-2.469 -3.621,-6.008 -6.775,-6.858 -2.141,-0.576 -3.54,1.646 -4.938,3.154 -0.411,0.466 -0.906,1.016 -1.071,1.646 1.948,1.536 4.033,3.429 4.279,5.925 2.524,0.137 4.967,1.015 7.516,0.549 C -0.248,4.251 1.206,4.498 1.563,3.538 2.111,2.194 0.795,0.987 0,0 Z m -16.219,-12.596 c -2.03,-1.016 -5.422,-2.581 -7.767,-1.738 -1.968,0.709 -1.208,3.48 -0.816,5.002 0.144,0.561 2.336,4.97 2.336,4.97 2.881,-0.576 6.117,0 8.504,1.591 0.601,-1.783 2.715,-3.044 2.824,-4.938 0.164,-2.66 -3.161,-3.927 -5.081,-4.887 z m -12.365,2.447 c -1.31,-0.656 -3.945,-2.046 -5.179,-0.598 -1.015,1.189 -0.814,3.534 -0.823,4.975 -0.012,1.844 0.434,3.702 2.134,4.702 1.564,0.932 3.211,1.618 4.856,2.304 0.686,0.301 1.838,0.137 2.496,-0.11 0.274,0.11 0.494,-0.247 0.604,-0.137 -0.631,-1.317 -0.631,-2.907 0.192,-4.088 0.302,-0.438 0.74,-0.767 1.179,-0.932 -0.702,-1.249 -1.618,-2.633 -2.496,-3.868 -0.713,-1.015 -1.81,-1.673 -2.963,-2.248 z m -0.383,15.086 c -0.707,1.795 2.35,3.434 3.494,4.157 2.12,1.341 4.021,2.863 6.519,3.469 1.809,0.439 3.565,-0.357 4.663,-1.838 0.547,-0.768 0.63,-1.811 0.794,-2.771 -4.114,-0.466 -7.927,-2.222 -10.396,-5.925 -1.865,0.522 -4.334,0.988 -5.074,2.908 z m 15.984,2.066 c 1.188,-0.123 2.143,-0.566 2.735,-1.233 0.816,-0.922 0.942,-2.271 0.045,-3.796 -0.935,-1.591 -2.416,-2.852 -3.952,-3.812 -2.216,-1.385 -5.408,-2.456 -7.995,-1.605 -2.502,0.824 -2.261,3.323 -1.025,5.234 0.835,1.287 2.07,2.296 3.366,3.094 2.006,1.233 4.415,2.367 6.826,2.118 z m 1.874,5.588 c 1.536,1.863 3.313,0.782 5.337,0.44 2.343,-0.395 4.74,-1.006 6.758,-2.306 C 1.781,10.204 2.194,9.298 1.892,8.421 1.302,6.706 -1.207,6.34 -2.775,6 -5.032,5.508 -7.244,4.971 -8.64,5.184 c -0.167,0.987 -0.798,1.673 -1.702,2.111 -0.632,0.33 -1.371,0.494 -2.111,0.605 -0.167,1.559 0.349,3.485 1.344,4.691 z M 3.154,4.004 C 2.769,4.91 1.781,5.568 0.85,5.732 c 0.911,0.384 1.823,1 2.221,1.937 L 3.29,9.024 c 0.118,1.048 -0.717,2.863 -2.715,3.62 -2.506,0.951 -5.211,1.509 -7.9,2.085 -1.728,0.412 -4.142,0.247 -5.047,-1.646 -0.302,-0.548 -0.66,-1.069 -0.741,-1.645 -0.659,0.713 -1.482,1.371 -2.303,1.865 -4.116,2.331 -7.983,-0.878 -11.11,-3.182 -1.453,-1.042 -3.128,-2.304 -3.759,-4.005 -0.575,-1.591 0.604,-2.605 1.648,-3.62 -1.592,-0.686 -3.184,-1.345 -4.691,-2.249 -2.511,-1.516 -2.604,-4.175 -2.478,-6.853 0.041,-0.863 0.011,-3.096 0.393,-3.79 l 0.656,-1.594 c 0.825,-1.49 2.661,-1.106 3.594,-0.958 1.663,0.264 2.938,1.047 4.417,1.756 -0.04,-0.674 -0.317,-1.502 0.086,-2.817 0.802,-2.607 5.009,-2.093 6.958,-1.665 2.915,0.638 5.479,2.358 7.907,4.016 1.399,0.96 2.413,2.195 2.384,3.894 0.825,-0.52 1.813,-0.932 2.827,-0.657 1.619,0.411 3.345,1.343 4.417,2.88 1.644,2.413 3.565,4.251 5.046,6.857 0.494,0.823 0.659,1.81 0.275,2.688"
             style="fill:#ca1694;fill-opacity:1;fill-rule:nonzero;stroke:none"
             id="path258"
             inkscape:connector-curvature="0" /></g><g
           id="g260"
           transform="matrix(1.930883,0,0,1.930883,160.71066,241.2437)"><path
             d="m 0,0 c 0.52,0.979 1.394,1.672 2.317,2.251 1.352,0.847 3.012,1.744 4.524,2.245 0.565,0.187 4.28,1.17 6.338,0.667 -0.302,0.851 -2.006,1.974 -1.245,2.819 1.245,1.387 3.005,1.126 4.487,0.99 1.092,-0.1 2.552,-0.173 3.607,-0.497 0.225,-0.07 2.878,-1.123 2.767,-1.288 l 0.246,1.453 c -2.853,1.482 -6.39,2.579 -9.736,1.564 C 12.071,9.82 10.368,9.435 10.013,7.982 9.902,7.488 10.259,7.104 10.534,6.72 9.298,6.419 7.927,6.391 6.721,6.007 3.237,4.882 -0.603,2.908 -2.303,-0.659 L 0,0"
             style="fill:#a85a0c;fill-opacity:1;fill-rule:nonzero;stroke:none"
             id="path262"
             inkscape:connector-curvature="0" /></g><g
           id="g264"
           transform="matrix(1.930883,0,0,1.930883,150.4345,191.03302)"><path
             d="m 0,0 c -0.081,-1.838 -0.218,-3.538 0.33,-5.322 1.016,-3.4 3.95,-7.186 7.569,-8.282 1.729,-0.55 3.54,-0.851 5.13,0.054 0,0 0.083,2.384 0.065,2.775 -0.143,3.041 0.446,6.429 -2.11,8.711 -0.612,0.544 -1.396,0.965 -2.177,1.213 -1.208,0.385 -2.223,-0.383 -2.881,-1.233 -0.384,0.164 -0.498,0.607 -0.275,0.85 0.215,0.233 1.239,1.36 2.167,1.553 1.022,0.213 1.227,0.105 2.25,-0.099 1.975,-0.412 3.511,-2.359 4.415,-4.17 2.634,-5.293 -1.096,-11.521 2.496,-16.376 0.933,-1.261 2.003,-2.825 3.485,-3.428 l 0.19,-1.92 c -3.656,0.943 -5.678,4.135 -7.056,7.354 -0.155,0.362 -0.488,1.666 -0.776,1.856 0,0 -1.509,-0.281 -2.572,-0.39 -1.009,-0.103 -1.967,0.177 -2.905,0.57 -1.816,0.759 -3.318,2.115 -4.656,3.53 -1.455,1.535 -2.605,3.455 -3.347,5.403 -0.215,0.565 -1.048,4.643 -0.74,6.638 L 0,0"
             style="fill:#a85a0c;fill-opacity:1;fill-rule:nonzero;stroke:none"
             id="path266"
             inkscape:connector-curvature="0" /></g><g
           id="g268"
           transform="matrix(1.930883,0,0,1.930883,276.50571,306.54424)"><path
             d="m 0,0 c -0.174,-0.123 -0.309,-0.629 -0.309,-0.629 -2.646,0.827 -5.132,2.992 -7.189,4.967 -2.524,2.441 -4.661,5.484 -8.034,6.417 -0.329,0.11 -0.687,0.137 -1.043,0.192 -2.991,0.384 -5.569,-0.851 -7.571,-3.1 -2.139,-2.359 -2.248,-6.117 -1.18,-8.942 2.331,-6.254 7.159,-11.603 11.193,-17.061 1.125,-1.509 2.111,-2.963 3.675,-4.06 1.206,-0.905 2.25,-1.399 3.621,-1.975 5.046,-2.195 11.301,-0.631 16.128,1.042 3.949,1.372 7.598,3.319 11.138,5.596 1.232,0.795 2.167,2.03 3.016,3.154 0.274,0.385 0.549,0.851 0.603,1.317 0.221,3.978 -2.315,6.156 -4.912,9.21 -0.184,0.214 -0.445,0.322 -0.741,0.364 -0.692,0.098 -5.333,-0.748 -5.556,-0.902 0,0 0.062,0.487 -0.349,0.807 0.343,-0.069 0.72,0.009 0.945,0.066 0.31,0.079 0.623,0.186 0.91,0.246 1.134,0.241 2.242,0.598 3.367,0.88 0.386,3.101 1.32,6.136 1.883,9.156 0.158,0.853 0.422,3.05 0.695,3.077 0.531,0.12 1.062,0.214 1.582,0.325 0.542,0.115 3.333,1.06 4.189,1.374 1.301,0.477 2.511,1.099 3.172,2.388 0.385,0.741 0.494,1.92 -0.192,2.579 -0.548,0.521 -1.455,0.658 -2.111,0.576 -2.69,-0.247 -4.663,-2.427 -6.54,-4.267 -0.546,-0.535 -1.799,0.843 -2.513,1.392 -4.965,3.84 -10.122,6.056 -16.293,7.044 -1.564,0.247 -3.456,0.164 -5.131,0.383 -0.272,1.51 0.988,3.156 1.591,4.746 0.467,1.353 0.901,2.466 -0.183,3.55 -0.87,0.868 -2.013,1.388 -3.246,1.388 -0.383,0 -0.986,-0.11 -1.315,-0.521 -1.729,-2.249 -1.181,-5.733 -0.74,-8.311 0.107,-0.65 -0.006,-1.243 -0.206,-1.811 -0.253,-0.728 -2.892,-6.922 -4.731,-9.71 C -10.156,9.548 -8.456,7.243 -6.7,5.297 -5.658,4.116 -3.09,1.785 -2.399,1.46 -1.11,0.855 -0.066,0.33 0.678,0.276 0.678,0.276 0.174,0.123 0,0 Z m 0.403,-32.968 c -0.301,2.111 0.193,4.196 0.385,6.254 -0.003,-0.031 -2.73,0.045 -2.936,0.049 -0.539,0.01 -1.062,0.045 -1.581,0.107 -0.926,0.111 -1.83,0.31 -2.742,0.617 -0.492,0.165 -2.117,0.847 -2.808,1.475 0.248,-1.672 -0.027,-3.318 -0.467,-4.799 -0.164,-0.686 -0.74,-1.318 -0.766,-1.921 l -1.273,0.514 c 0,0 0.729,1.398 1.034,2.189 0.304,0.79 0.304,2.492 0.304,3.526 0,1.033 -0.341,1.754 -0.341,1.754 -1.206,0.822 -2.757,2.704 -3.291,3.345 l -1.453,1.592 c -1.961,2.209 -4.279,5.651 -6.336,8.421 -2.195,2.88 -4.033,5.76 -4.994,9.134 -1.07,3.923 0.138,7.818 2.853,10.478 2.331,2.331 5.925,2.909 9.078,2.305 0.443,-0.091 0.803,-0.027 1.111,0.138 0.897,0.483 4.579,6.769 4.95,9.071 0.083,0.519 0.108,1.052 0.056,1.598 -0.273,3.237 -1.123,7.296 1.702,9.326 1.487,1.068 3.968,0.196 5.132,-0.979 1.237,-1.246 1.814,-2.208 1.59,-4.013 -0.22,-1.755 -1.482,-3.073 -1.895,-4.608 2.222,0.136 4.28,-0.028 6.309,-0.467 5.404,-1.152 10.122,-3.373 14.621,-6.83 0.494,-0.411 1.014,-0.738 1.453,-1.207 0.44,0.988 1.482,1.893 2.415,2.524 1.865,1.234 4.581,2.742 6.72,1.179 1.591,-1.15 1.817,-2.706 0.989,-4.444 C 29.503,11.852 27.749,10.861 26.27,10.234 24.651,9.548 22.925,9.218 21.196,8.835 20.84,5.132 19.852,1.566 19.496,-2.22 c 1.015,-0.713 1.754,-1.618 2.578,-2.551 2.25,-2.715 4.279,-6.583 2.413,-10.011 -1.974,-3.731 -6.116,-5.432 -9.545,-7.379 -0.642,-0.366 -4.799,-1.975 -4.799,-1.975 -1.375,-0.436 -3.457,-1.289 -4.995,-1.646 0,0 -2.158,-0.513 -2.704,-0.695 -0.366,-1.277 -0.366,-1.946 -0.486,-3.77 -0.061,-0.91 0.12,-2.736 0.12,-2.736 l -1.675,0.015"
             style="fill:#a85a0c;fill-opacity:1;fill-rule:nonzero;stroke:none"
             id="path270"
             inkscape:connector-curvature="0" /></g><g
           id="g272"
           transform="matrix(1.930883,0,0,1.930883,180.02914,206.02247)"><path
             d="m 0,0 c 4.13,8.149 -1.595,16.19 -5.205,17.646 l 1.749,0.327 C 0.048,15.937 4.901,8.234 1.336,0.331 L 0,0"
             style="fill:#5581ca;fill-opacity:1;fill-rule:nonzero;stroke:none"
             id="path274"
             inkscape:connector-curvature="0" /></g><g
           id="g276"
           transform="matrix(1.930883,0,0,1.930883,159.23353,199.2161)"><path
             d="m 0,0 c 4.502,8.534 -1.799,17.695 -5.391,18.729 l 1.247,0.289 C -0.585,18.235 5.399,9.334 1.448,0.508 L 0,0"
             style="fill:#ef2e31;fill-opacity:1;fill-rule:nonzero;stroke:none"
             id="path278"
             inkscape:connector-curvature="0" /></g><g
           id="g280"
           transform="matrix(1.930883,0,0,1.930883,194.66717,244.80425)"><path
             d="m 0,0 c 2.858,-1.145 9.171,-8.233 4.562,-16.832 l -1.257,-0.292 c 4.689,8.089 -1.477,16.161 -5.007,16.84 L 0,0"
             style="fill:#ef2e31;fill-opacity:1;fill-rule:nonzero;stroke:none"
             id="path282"
             inkscape:connector-curvature="0" /></g><g
           id="g284"
           transform="matrix(1.930883,0,0,1.930883,169.9789,240.09483)"><path
             d="m 0,0 c -3.085,-0.622 -5.954,-1.251 -8.168,-1.769 -0.501,-0.117 -1.018,-0.247 -1.541,-0.384 3.559,-0.783 9.543,-9.684 5.592,-18.51 1.58,0.626 2.953,1.145 3.762,1.395 1.421,0.442 3.349,1.017 5.56,1.622 C 9.335,-9.497 3.61,-1.456 0,0"
             style="fill:#ffffff;fill-opacity:1;fill-rule:nonzero;stroke:none"
             id="path286"
             inkscape:connector-curvature="0" /></g><g
           id="g288"
           transform="matrix(1.930883,0,0,1.930883,191.38081,244.25588)"><path
             d="m 0,0 0.054,0.013 c -2.478,-0.46 -5.827,-1.133 -9.389,-1.841 3.504,-2.036 8.357,-9.739 4.792,-17.642 3.474,0.942 6.967,1.91 9.175,2.526 0.126,0.035 0.252,0.069 0.375,0.104 C 9.696,-8.751 3.53,-0.679 0,0"
             style="fill:#ffffff;fill-opacity:1;fill-rule:nonzero;stroke:none"
             id="path290"
             inkscape:connector-curvature="0" /></g><g
           id="g292"
           transform="matrix(1.930883,0,0,1.930883,148.82414,235.37961)"><path
             d="m 0,0 c -4.334,-1.202 -8.966,-2.909 -12.42,-4.118 3.022,-0.937 5.265,-2.218 6.849,-4.455 1.924,-2.718 2.631,-4.321 3.15,-7.315 0.417,-2.395 0.417,-3.437 -0.935,-6.562 0,0 4.627,2.059 8.747,3.721 C 9.893,-10.195 3.592,-1.034 0,0"
             style="fill:#ffffff;fill-opacity:1;fill-rule:nonzero;stroke:none"
             id="path294"
             inkscape:connector-curvature="0" /></g><g
           id="g296"
           transform="matrix(1.930883,0,0,1.930883,225.81038,233.8658)"><path
             d="m 0,0 c -0.262,3.091 -1.251,5.311 -4.586,6.458 -1.321,0.454 -7.081,-0.014 -10.103,-0.535 -0.332,-0.058 -0.824,-0.146 -1.44,-0.258 2.858,-1.145 9.171,-8.233 4.562,-16.832 C -5.697,-9.597 0.668,-7.953 0,0"
             style="fill:#ffffff;fill-opacity:1;fill-rule:nonzero;stroke:none"
             id="path298"
             inkscape:connector-curvature="0" /></g><g
           id="g300"
           transform="matrix(1.930883,0,0,1.930883,353.12894,221.84991)"><path
             d="m 0,0 c -1.324,1.377 -2.789,2.621 -4.273,3.712 -1.381,1.015 -4.258,3.372 -7.874,4.121 l -0.25,-1.061 -1.059,-0.311 -0.062,-3.679 c 0,0 0.068,-6.333 -1.216,-12.043 0.929,-0.297 2.002,-0.74 2.905,-1.385 C -11.917,-5.246 -7.103,-0.234 0,0"
             style="fill:#ffffff;fill-opacity:1;fill-rule:nonzero;stroke:none"
             id="path302"
             inkscape:connector-curvature="0" /></g><g
           id="g304"
           transform="matrix(1.930883,0,0,1.930883,329.18792,184.6167)"><path
             d="m 0,0 c -0.162,-0.17 -0.331,-0.34 -0.509,-0.506 -1.816,-1.708 -4.587,-3.984 -4.592,-3.987 3.976,-1.293 5.927,-6.877 6.275,-8.049 0.581,-1.953 0.925,-3.873 -0.13,-6.381 3.294,1.579 6.034,3.209 7.733,4.402 1.167,0.822 2.209,1.766 3.096,2.629 C 11.652,-4.047 5.788,0.727 0,0"
             style="fill:#ffffff;fill-opacity:1;fill-rule:nonzero;stroke:none"
             id="path306"
             inkscape:connector-curvature="0" /></g><g
           id="g308"
           transform="matrix(1.930883,0,0,1.930883,364.47867,192.15293)"><path
             d="m 0,0 c 0.069,3.528 -0.542,6.847 -1.711,9.43 -0.871,1.917 -2.116,3.695 -3.568,5.304 -6.576,0.04 -11.857,-5.092 -11.926,-10.439 0.483,-0.464 1.047,-1.126 1.262,-1.766 0.122,-0.368 0.183,-0.749 0.196,-1.135 C -11.935,4.501 -5.605,5.726 0,0"
             style="fill:#ffffff;fill-opacity:1;fill-rule:nonzero;stroke:none"
             id="path310"
             inkscape:connector-curvature="0" /></g><g
           id="g312"
           transform="matrix(1.930883,0,0,1.930883,333.97458,193.50262)"><path
             d="m 0,0 c -0.201,-1.197 -0.959,-2.844 -1.898,-3.998 5.781,0.721 11.7,-4.118 11.93,-11.954 0.585,0.645 1.137,1.355 1.682,2.185 2.211,3.36 3.12,5.723 3.645,8.596 0.195,1.063 0.32,2.126 0.391,3.176 C 12.273,2.841 5.151,4.097 0,0"
             style="fill:#ffffff;fill-opacity:1;fill-rule:nonzero;stroke:none"
             id="path314"
             inkscape:connector-curvature="0" /></g><g
           id="g316"
           transform="matrix(1.930883,0,0,1.930883,330.30398,185.78295)"><path
             d="m 0,0 c -0.217,-0.265 -0.332,-0.348 -0.578,-0.604 5.788,0.726 11.652,-4.047 11.873,-11.892 0.237,0.232 0.408,0.294 0.635,0.543 C 11.699,-4.117 5.782,0.722 0,0"
             style="fill:#ef2e31;fill-opacity:1;fill-rule:nonzero;stroke:none"
             id="path318"
             inkscape:connector-curvature="0" /></g><g
           id="g320"
           transform="matrix(1.930883,0,0,1.930883,334.09044,194.82914)"><path
             d="m 0,0 c 0.012,-0.304 -0.009,-0.375 -0.06,-0.687 5.151,4.097 12.273,2.841 15.75,-1.995 0.03,0.431 0.048,0.861 0.055,1.288 C 10.143,4.332 3.811,3.107 0,0"
             style="fill:#5581ca;fill-opacity:1;fill-rule:nonzero;stroke:none"
             id="path322"
             inkscape:connector-curvature="0" /></g><g
           id="g324"
           transform="matrix(1.930883,0,0,1.930883,354.28554,220.60256)"><path
             d="m 0,0 c -0.196,0.22 -0.398,0.437 -0.603,0.65 -7.1,-0.234 -11.917,-5.244 -11.828,-10.646 0.242,-0.172 0.294,-0.241 0.505,-0.444 C -11.857,-5.092 -6.576,0.04 0,0"
             style="fill:#ef2e31;fill-opacity:1;fill-rule:nonzero;stroke:none"
             id="path326"
             inkscape:connector-curvature="0" /></g><g
           id="g328"
           transform="matrix(1.930883,0,0,1.930883,271.19385,425.18927)"><path
             d="m 0,0 c 0.795,-0.521 1.208,-1.427 0.906,-2.304 -0.59,-1.715 -3.099,-2.081 -4.667,-2.421 -2.257,-0.492 -4.469,-1.029 -5.865,-0.816 -0.167,0.987 -0.798,1.673 -1.702,2.112 -0.632,0.329 -1.371,0.494 -2.111,0.604 -0.167,1.559 0.349,3.486 1.344,4.691 1.536,1.863 3.313,0.783 5.337,0.441 C -4.415,1.911 -2.018,1.301 0,0"
             style="fill:#ef81c6;fill-opacity:1;fill-rule:nonzero;stroke:none"
             id="path330"
             inkscape:connector-curvature="0" /></g><g
           id="g332"
           transform="matrix(1.930883,0,0,1.930883,241.69575,425.18927)"><path
             d="m 0,0 c 0.547,-0.768 0.63,-1.81 0.794,-2.771 -4.114,-0.465 -7.927,-2.222 -10.396,-5.925 -1.865,0.522 -4.334,0.988 -5.074,2.908 -0.707,1.795 2.35,3.434 3.494,4.158 2.12,1.34 4.021,2.862 6.519,3.468 C -2.854,2.277 -1.098,1.481 0,0"
             style="fill:#ef81c6;fill-opacity:1;fill-rule:nonzero;stroke:none"
             id="path334"
             inkscape:connector-curvature="0" /></g></g></g></g></svg>